<svg id="Bolivares" xmlns="http://www.w3.org/2000/svg" viewBox="0 0 30 30"><defs><style>.cls-1{fill:#770800;}.cls-2{fill:#fff;}</style></defs><title>Bolivares</title><circle class="cls-1" cx="15" cy="15" r="15"/><path class="cls-2" d="M6.76,20.87V9h4.37a8.64,8.64,0,0,1,2.09.23,4,4,0,0,1,1.41.64,2.52,2.52,0,0,1,.8,1,3.53,3.53,0,0,1,.25,1.33,2.53,2.53,0,0,1-.12.77,2,2,0,0,1-.36.7,3.15,3.15,0,0,1-.62.59,4.65,4.65,0,0,1-.92.46,3.22,3.22,0,0,1,1.73.92A2.38,2.38,0,0,1,16,17.29a3.26,3.26,0,0,1-1.15,2.55,4.15,4.15,0,0,1-1.4.76,6.15,6.15,0,0,1-1.9.27ZM9.52,14H11a5.66,5.66,0,0,0,.82-.06,1.6,1.6,0,0,0,.63-.23,1.06,1.06,0,0,0,.39-.45,1.72,1.72,0,0,0,.13-.71,2.14,2.14,0,0,0-.1-.71,1.06,1.06,0,0,0-.33-.45,1.29,1.29,0,0,0-.56-.25,4.25,4.25,0,0,0-.8-.07H9.52Zm0,1.85v3h1.94a2.25,2.25,0,0,0,.89-.14,1.36,1.36,0,0,0,.54-.35,1.22,1.22,0,0,0,.27-.5,2.1,2.1,0,0,0,.07-.56,2.33,2.33,0,0,0-.08-.59,1,1,0,0,0-.3-.44,1.44,1.44,0,0,0-.55-.28,3.11,3.11,0,0,0-.86-.09Z"/><path class="cls-2" d="M22.62,14.27a.73.73,0,0,1-.21.22.55.55,0,0,1-.28.07.9.9,0,0,1-.36-.08l-.39-.17-.47-.17a2.32,2.32,0,0,0-.59-.07,1.27,1.27,0,0,0-.74.18.57.57,0,0,0-.25.51.48.48,0,0,0,.16.39,1.59,1.59,0,0,0,.45.27,4.62,4.62,0,0,0,.62.23l.72.23a5.78,5.78,0,0,1,.72.31,2.65,2.65,0,0,1,.62.43,1.87,1.87,0,0,1,.45.62,2.06,2.06,0,0,1,.17.88A2.9,2.9,0,0,1,23,19.28a2.42,2.42,0,0,1-.68.91,3.2,3.2,0,0,1-1.12.6,5.22,5.22,0,0,1-2.39.13A8.12,8.12,0,0,1,18,20.7a5,5,0,0,1-.75-.33,4.13,4.13,0,0,1-.59-.41l.59-.93a.88.88,0,0,1,.25-.26.83.83,0,0,1,.78,0l.38.21.48.21a2,2,0,0,0,.68.1,2.07,2.07,0,0,0,.5-.06.87.87,0,0,0,.33-.17.69.69,0,0,0,.18-.24.86.86,0,0,0,.05-.27.54.54,0,0,0-.17-.41,1.31,1.31,0,0,0-.45-.28,4.7,4.7,0,0,0-.63-.22l-.72-.23a5.83,5.83,0,0,1-.72-.32A2.22,2.22,0,0,1,17.1,16a2.63,2.63,0,0,1-.17-1,2.49,2.49,0,0,1,.21-1,2.28,2.28,0,0,1,.62-.85,3.12,3.12,0,0,1,1-.58,4.3,4.3,0,0,1,1.47-.22,5.14,5.14,0,0,1,.88.08,4.42,4.42,0,0,1,.81.23,3.36,3.36,0,0,1,.68.35,3.26,3.26,0,0,1,.55.43Z"/></svg>