<?xml version="1.0" encoding="utf-8"?>
<!-- Generator: Adobe Illustrator 24.0.2, SVG Export Plug-In . SVG Version: 6.00 Build 0)  -->
<svg version="1.1" id="Capa_1" xmlns="http://www.w3.org/2000/svg" xmlns:xlink="http://www.w3.org/1999/xlink" x="0px" y="0px"
	 viewBox="0 0 153.8 153.8" style="enable-background:new 0 0 153.8 153.8;" xml:space="preserve">
<style type="text/css">
	.st0{fill:#4AB552;}
	.st1{fill:#FFFFFF;}
</style>
<title>moneda USD</title>
<g id="Dolares_Int">
	<circle class="st0" cx="76.9" cy="76.9" r="76.9"/>
</g>
<path class="st1" d="M43.6,89.8c1.2,0,2.4-0.2,3.5-0.7c1-0.4,1.9-1,2.6-1.8c0.7-0.8,1.3-1.8,1.6-2.9c0.4-1.3,0.6-2.6,0.6-3.9V56h9.6
	v24.5c0,2.4-0.4,4.8-1.2,7c-0.8,2.1-2,3.9-3.5,5.5c-1.6,1.6-3.5,2.8-5.6,3.6c-4.8,1.7-10,1.7-14.8,0c-2.1-0.8-4-2-5.6-3.6
	c-1.5-1.6-2.7-3.4-3.5-5.5c-0.8-2.2-1.3-4.6-1.2-7V56h9.6v24.5c0,1.3,0.2,2.6,0.6,3.9c0.3,1.1,0.9,2.1,1.6,2.9
	c0.7,0.8,1.6,1.4,2.6,1.8C41.3,89.5,42.4,89.8,43.6,89.8z"/>
<path class="st1" d="M90.6,64.4c-0.2,0.4-0.5,0.7-0.9,1c-0.4,0.2-0.8,0.4-1.2,0.3c-0.5,0-1-0.2-1.4-0.4l-1.7-0.9
	c-0.7-0.4-1.4-0.7-2.2-0.9c-0.9-0.3-1.8-0.4-2.8-0.4c-1.4-0.1-2.8,0.3-4,1.2c-0.9,0.8-1.4,1.9-1.3,3.1c0,0.8,0.3,1.5,0.8,2.1
	c0.6,0.6,1.3,1.1,2.1,1.4c1,0.4,1.9,0.8,2.9,1.1c1.1,0.3,2.2,0.7,3.4,1.1c1.2,0.4,2.3,0.9,3.4,1.4c1.1,0.5,2.1,1.2,3,2.1
	c0.9,0.9,1.6,2,2.1,3.1c0.6,1.4,0.8,2.9,0.8,4.4c0,1.8-0.3,3.7-1,5.4c-0.6,1.6-1.6,3.1-2.9,4.3c-1.3,1.3-2.9,2.3-4.6,2.9
	c-2,0.7-4.1,1.1-6.3,1.1c-1.3,0-2.6-0.1-3.9-0.4c-1.3-0.3-2.6-0.6-3.9-1.1c-1.2-0.5-2.4-1-3.5-1.7c-1-0.6-2-1.4-2.9-2.2l2.8-4.5
	c0.2-0.3,0.5-0.6,0.9-0.8c0.4-0.2,0.8-0.3,1.2-0.3c0.6,0,1.2,0.2,1.7,0.5c0.6,0.4,1.2,0.8,2,1.2c0.8,0.5,1.6,0.9,2.5,1.2
	c1.1,0.4,2.2,0.6,3.3,0.5c1.4,0.1,2.9-0.3,4.1-1.2c1-0.9,1.6-2.3,1.4-3.6c0-0.9-0.2-1.7-0.8-2.3c-0.6-0.6-1.3-1.2-2.1-1.5
	c-1-0.4-1.9-0.8-2.9-1.1c-1.1-0.3-2.2-0.6-3.4-1c-1.2-0.4-2.3-0.8-3.5-1.4c-1.1-0.5-2.1-1.3-2.9-2.1c-0.9-1-1.6-2.1-2.1-3.3
	c-0.6-1.6-0.8-3.2-0.8-4.9c0-3.2,1.3-6.3,3.7-8.5c1.3-1.2,2.8-2.1,4.5-2.8c1.9-0.7,4-1,6-1c1.2,0,2.5,0.1,3.7,0.3
	c2.3,0.3,4.5,1.1,6.5,2.2c0.9,0.5,1.7,1.1,2.5,1.8L90.6,64.4z"/>
<path class="st1" d="M135.8,76.6c0,2.8-0.5,5.6-1.6,8.3c-1,2.5-2.5,4.7-4.4,6.6c-1.9,1.9-4.2,3.4-6.8,4.3c-2.8,1.1-5.8,1.6-8.8,1.6
	H98.3V56h16.1c3,0,6,0.5,8.8,1.6c2.5,1,4.8,2.4,6.8,4.3c1.9,1.9,3.4,4.1,4.4,6.5C135.3,71,135.9,73.8,135.8,76.6z M126,76.6
	c0-1.9-0.2-3.7-0.8-5.5c-0.5-1.5-1.2-3-2.3-4.2c-1-1.1-2.2-2-3.6-2.6c-1.6-0.6-3.2-0.9-4.9-0.9H108v26.6h6.4c1.7,0,3.3-0.3,4.9-0.9
	c1.4-0.6,2.7-1.5,3.6-2.6c1-1.2,1.8-2.7,2.3-4.2C125.8,80.4,126.1,78.5,126,76.6z"/>
</svg>
