<?xml version="1.0" encoding="utf-8"?>
<!-- Generator: Adobe Illustrator 24.0.2, SVG Export Plug-In . SVG Version: 6.00 Build 0)  -->
<svg version="1.1" id="Capa_1" xmlns="http://www.w3.org/2000/svg" xmlns:xlink="http://www.w3.org/1999/xlink" x="0px" y="0px"
	 viewBox="0 0 20 20" style="enable-background:new 0 0 20 20;" xml:space="preserve">
<style type="text/css">
	.st0{fill:#35445F;}
</style>
<g id="XMLID_7_">
	<g id="XMLID_9_">
		<path class="st0" d="M7.1,13.4C7.1,13.4,7.2,13.5,7.1,13.4L7.1,13.4c0.1,0,0.1,0,0.1,0l0,0c0,0,0,0,0.1,0l0,0c0,0,0.1,0,0.1,0h5
			c0.2,0,0.4-0.1,0.6-0.2c0.2-0.2,0.2-0.4,0.2-0.6c0-0.5-0.4-0.8-0.8-0.8H9.5L19.6,1.7c0.2-0.2,0.2-0.4,0.2-0.6s-0.1-0.4-0.2-0.6
			c-0.2-0.2-0.4-0.2-0.6-0.2c-0.2,0-0.4,0.1-0.6,0.2L8.3,10.6V7.7c0-0.2-0.1-0.4-0.2-0.6C7.9,6.9,7.7,6.9,7.4,6.9
			C7,6.9,6.6,7.2,6.6,7.7v5c0,0,0,0.1,0,0.1c0,0,0,0,0,0c0,0,0,0,0,0.1c0,0,0,0.1,0,0.1c0,0,0,0,0,0.1l0,0c0,0,0,0.1,0,0.1
			c0,0,0,0,0,0.1l0,0c0,0,0,0,0,0c0,0,0,0,0.1,0.1c0,0,0,0,0.1,0.1c0,0,0,0,0,0l0,0C7,13.4,7,13.4,7.1,13.4L7.1,13.4
			C7.1,13.4,7.1,13.4,7.1,13.4L7.1,13.4z"/>
	</g>
	<g id="XMLID_8_">
		<path class="st0" d="M9.3,1.4c-2.5,0-4.8,1-6.5,2.7C1,5.9,0,8.2,0,10.7c0,2.5,1,4.8,2.7,6.5c1.7,1.7,4.1,2.7,6.5,2.7c0,0,0,0,0,0
			c2.5,0,4.8-1,6.5-2.7C18,15,19,11.9,18.4,8.9c-0.1-0.4-0.4-0.7-0.8-0.7c-0.1,0-0.1,0-0.2,0c-0.2,0-0.4,0.2-0.5,0.4
			c-0.1,0.2-0.2,0.4-0.1,0.6c0.5,2.5-0.3,5-2.1,6.8c-1.4,1.4-3.3,2.2-5.3,2.2c-2,0-3.9-0.8-5.3-2.2c-1.4-1.4-2.2-3.3-2.2-5.3
			c0-2,0.8-3.9,2.2-5.3c1.4-1.4,3.3-2.2,5.3-2.2c0.5,0,1,0,1.4,0.1c0.1,0,0.1,0,0.2,0c0.4,0,0.7-0.3,0.8-0.7c0-0.2,0-0.4-0.1-0.6
			c-0.1-0.2-0.3-0.3-0.5-0.4C10.5,1.5,9.9,1.4,9.3,1.4z"/>
	</g>
</g>
</svg>
