<?xml version="1.0" encoding="utf-8"?>
<!-- Generator: Adobe Illustrator 24.0.2, SVG Export Plug-In . SVG Version: 6.00 Build 0)  -->
<svg version="1.1" id="Capa_1" xmlns="http://www.w3.org/2000/svg" xmlns:xlink="http://www.w3.org/1999/xlink" x="0px" y="0px"
	 viewBox="0 0 20 20" style="enable-background:new 0 0 20 20;" xml:space="preserve">
<style type="text/css">
	.st0{fill:#35445F;}
</style>
<g id="XMLID_10_">
	<g id="XMLID_12_">
		<path class="st0" d="M14.3,0.2c-0.2,0-0.4,0.1-0.6,0.2c-0.2,0.2-0.2,0.4-0.2,0.6c0,0.4,0.4,0.8,0.8,0.8h2.8l-9.7,9.7
			c-0.2,0.2-0.2,0.4-0.2,0.6s0.1,0.4,0.2,0.6c0.2,0.2,0.4,0.2,0.6,0.2c0.2,0,0.4-0.1,0.6-0.2l9.7-9.7v2.8c0,0.2,0.1,0.4,0.2,0.6
			c0.2,0.2,0.4,0.2,0.6,0.2c0.4,0,0.8-0.4,0.8-0.8V1c0,0,0-0.1,0-0.1c0,0,0,0,0,0c0,0,0,0,0-0.1c0,0,0-0.1,0-0.1c0,0,0,0,0-0.1l0,0
			c0,0,0,0,0-0.1c0,0,0,0,0-0.1l0,0c0,0,0,0,0,0c0,0,0,0-0.1-0.1c0,0,0,0-0.1-0.1c0,0,0,0,0,0l0,0c0,0,0,0-0.1,0l0,0c0,0,0,0-0.1,0
			l0,0c0,0,0,0-0.1,0l0,0c0,0,0,0-0.1,0l0,0c0,0,0,0-0.1,0l0,0c0,0,0,0-0.1,0H14.3z"/>
	</g>
	<g id="XMLID_11_">
		<path class="st0" d="M8.9,2.3c-2.3,0-4.6,0.9-6.2,2.6C1,6.5,0.1,8.7,0.1,11.1s0.9,4.6,2.6,6.2c1.7,1.7,3.9,2.6,6.2,2.6
			c0,0,0,0,0,0c2.4,0,4.6-0.9,6.2-2.6c2.1-2.1,3-5,2.4-7.9c-0.1-0.4-0.4-0.6-0.8-0.6c-0.1,0-0.1,0-0.2,0c-0.2,0-0.4,0.2-0.5,0.3
			C16,9.2,15.9,9.5,16,9.7c0.5,2.4-0.3,4.8-2,6.5c-1.4,1.4-3.2,2.1-5.1,2.1s-3.7-0.7-5.1-2.1c-1.4-1.4-2.1-3.2-2.1-5.1
			c0-1.9,0.7-3.7,2.1-5.1C5.2,4.6,7,3.9,8.9,3.9c0.5,0,0.9,0,1.4,0.1c0.1,0,0.1,0,0.2,0c0.4,0,0.7-0.3,0.8-0.6c0-0.2,0-0.4-0.1-0.6
			c-0.1-0.2-0.3-0.3-0.5-0.3C10,2.3,9.5,2.3,8.9,2.3z"/>
	</g>
</g>
</svg>
